<svg width="989" height="463" viewBox="0 0 989 463" fill="none" xmlns="http://www.w3.org/2000/svg">
<g clip-path="url(#clip0_258_4)">
<path fill-rule="evenodd" clip-rule="evenodd" d="M496.316 244C650.716 250 764.649 375.833 802.316 438H886.5C866.711 391.5 716.5 244 496.316 222.5C438.953 216.899 383.596 213.639 332.271 210.617C186.587 202.038 109.215 197 39 142.5C13.8773 123 29.6686 67 293.816 -1H283.316C185.149 19.6667 -8.88409 77.3 0.315908 142.5C11.8159 224 303.316 236.5 496.316 244ZM895.816 438H989.316C873.316 240.8 612.316 192.5 496.316 193C363.483 193 96.0159 181.1 88.8159 133.5C81.6159 85.9 243.483 24 325.316 -1H304.316C195.983 25.5 -7.08408 91.3 47.3159 142.5C113.382 190.129 176.793 194.382 330.26 204.676C376.565 207.781 431.068 211.437 496.316 217C721.516 236.2 856.483 372.333 895.816 438Z" fill="#949494"/>
<path d="M895.816 438H989.316C873.316 240.8 612.316 192.5 496.316 193C363.483 193 96.0159 181.1 88.8159 133.5C81.6159 85.9 243.483 24 325.316 -1H304.316M895.816 438C856.483 372.333 721.516 236.2 496.316 217C431.068 211.437 376.565 207.781 330.26 204.676C176.793 194.382 113.382 190.129 47.3159 142.5C-7.08408 91.3 195.983 25.5 304.316 -1M895.816 438H886.5M304.316 -1H293.816M886.5 438H802.316C764.649 375.833 650.716 250 496.316 244C303.316 236.5 11.8159 224 0.315908 142.5C-8.88409 77.3 185.149 19.6667 283.316 -1H293.816M886.5 438C866.711 391.5 716.5 244 496.316 222.5C438.953 216.899 383.596 213.639 332.271 210.617C186.587 202.038 109.215 197 39 142.5C13.8773 123 29.6686 67 293.816 -1" stroke="black" stroke-opacity="0.43"/>
<path d="M241.694 255.356C241.694 231.463 238.366 214.14 231.71 203.388C225.225 192.636 216.265 187.26 204.83 187.26C193.566 187.26 182.814 192.295 172.574 202.364C162.505 212.263 154.569 224.807 148.766 239.996C143.134 255.185 140.318 270.545 140.318 286.076C140.318 307.409 143.817 324.903 150.814 338.556C157.982 352.209 168.734 359.036 183.07 359.036C195.017 359.036 205.513 353.831 214.558 343.42C223.774 332.839 230.601 319.783 235.038 304.252C239.476 288.721 241.694 272.423 241.694 255.356ZM246.302 349.052C238.622 357.415 228.98 364.156 217.374 369.276C205.94 374.396 193.396 376.956 179.742 376.956C166.089 376.956 154.057 373.884 143.646 367.74C133.406 361.596 125.214 353.404 119.07 343.164C106.782 322.684 100.638 298.791 100.638 271.484C100.638 244.177 107.379 219.857 120.862 198.524C134.515 177.191 152.691 163.708 175.39 158.076C176.755 158.418 178.035 159.1 179.23 160.124C180.595 161.148 181.363 162.258 181.534 163.452C159.518 179.495 146.206 201.34 141.598 228.988C148.766 208.849 159.518 193.148 173.854 181.884C188.361 170.45 203.892 164.732 220.446 164.732C237.001 164.732 251.081 171.9 262.686 186.236C274.462 200.401 280.35 220.967 280.35 247.932C280.35 274.385 275.401 298.193 265.502 319.356C260.382 330.62 253.982 340.519 246.302 349.052ZM371.936 222.844C382.006 222.844 389.174 226.001 393.44 232.316C397.878 238.46 400.096 246.908 400.096 257.66C400.096 268.241 398.39 283.175 394.976 302.46C391.734 321.745 390.112 335.825 390.112 344.7C390.112 353.404 391.222 359.804 393.44 363.9C395.659 367.825 399.414 371.239 404.704 374.14C402.486 374.311 399.328 374.396 395.232 374.396C380.896 374.396 370.656 372.177 364.512 367.74C358.539 363.303 355.552 355.537 355.552 344.444C355.552 338.129 357.259 325.841 360.672 307.58C364.086 289.148 365.792 275.409 365.792 266.364C365.792 255.1 362.379 249.468 355.552 249.468C351.627 249.468 347.19 251.772 342.24 256.38C337.291 260.988 332.512 267.303 327.904 275.324C323.296 283.175 319.456 293.329 316.384 305.788C313.312 318.247 311.776 330.705 311.776 343.164C311.776 355.452 312.288 364.583 313.312 370.556C307.851 370.897 304.267 371.068 302.56 371.068C292.832 371.068 285.835 369.361 281.568 365.948C277.302 362.535 275.168 356.903 275.168 349.052C275.168 345.639 276.96 332.497 280.544 309.628C284.128 286.759 285.92 268.583 285.92 255.1C285.92 241.447 284.47 228.903 281.568 217.468C294.027 221.393 302.731 227.025 307.68 234.364C312.63 241.532 315.104 249.809 315.104 259.196C315.104 268.412 314.08 279.164 312.032 291.452C317.664 272.337 326.539 256.124 338.656 242.812C350.774 229.5 361.867 222.844 371.936 222.844Z" fill="#010100"/>
<path d="M454.16 291.8C453.627 295.64 452.507 302.307 450.8 311.8C447.173 331.96 445.36 346.893 445.36 356.6C445.36 366.307 446.107 372.813 447.6 376.12C439.387 373.987 433.733 370.733 430.64 366.36C427.547 361.88 426 355.587 426 347.48C426 340.333 427.12 330.573 429.36 318.2C431.6 305.72 433.04 297.293 433.68 292.92C428.133 293.88 422.213 295.747 415.92 298.52C415.707 296.173 415.6 294.413 415.6 293.24C415.6 287.587 417.307 283.747 420.72 281.72C424.133 279.587 429.04 278.467 435.44 278.36C436.187 270.36 436.56 264.6 436.56 261.08C436.56 257.56 436.507 254.627 436.4 252.28C436.4 249.933 436.4 248.173 436.4 247C443.44 247.747 448.56 249.88 451.76 253.4C454.96 256.813 456.56 261.72 456.56 268.12C456.56 270.68 456.293 274.253 455.76 278.84C464.72 278.627 471.28 276.867 475.44 273.56C475.653 275.693 475.76 277.293 475.76 278.36C475.76 283.48 474.853 287.053 473.04 289.08C471.227 291 468.187 291.96 463.92 291.96C459.653 291.96 456.4 291.907 454.16 291.8ZM487.399 317.56C490.919 305.507 496.412 295.373 503.879 287.16C511.345 278.84 518.279 274.68 524.679 274.68C531.185 274.68 535.772 276.653 538.439 280.6C541.212 284.44 542.599 289.72 542.599 296.44C542.599 303.053 541.532 312.387 539.399 324.44C537.372 336.493 536.359 345.293 536.359 350.84C536.359 356.28 537.052 360.28 538.439 362.84C539.825 365.293 542.172 367.427 545.479 369.24C544.092 369.347 542.119 369.4 539.559 369.4C530.599 369.4 524.199 368.013 520.359 365.24C516.625 362.467 514.759 357.613 514.759 350.68C514.759 346.733 515.825 339.053 517.959 327.64C520.092 316.12 521.159 307.533 521.159 301.88C521.159 294.84 519.025 291.32 514.759 291.32C512.199 291.32 509.372 292.76 506.279 295.64C503.185 298.52 500.199 302.467 497.319 307.48C494.545 312.387 492.199 318.733 490.279 326.52C488.359 334.307 487.399 342.093 487.399 349.88C487.399 357.56 487.719 363.267 488.359 367C484.945 367.213 482.705 367.32 481.639 367.32C475.559 367.32 471.185 366.307 468.519 364.28C465.852 362.147 464.519 358.787 464.519 354.2C464.519 349.613 465.425 340.867 467.239 327.96C472.999 288.28 475.879 258.147 475.879 237.56C475.879 228.28 475.239 222.04 473.959 218.84C481.959 220.973 487.399 224.227 490.279 228.6C493.265 232.867 494.759 238.947 494.759 246.84C494.759 252.173 493.692 263.373 491.559 280.44C489.532 297.507 488.145 309.88 487.399 317.56ZM582.454 327.64C577.334 327.64 572.32 327.053 567.414 325.88C567.307 326.947 567.254 328.6 567.254 330.84C567.254 339.693 568.907 346.36 572.214 350.84C575.52 355.32 579.467 357.56 584.054 357.56C588.64 357.56 593.014 356.173 597.174 353.4C601.334 350.627 604.96 346.787 608.054 341.88C611.894 342.733 613.814 344.707 613.814 347.8C604.427 362.2 592.32 369.4 577.494 369.4C568.534 369.4 560.694 365.987 553.974 359.16C547.254 352.227 543.894 342.627 543.894 330.36C543.894 321.187 545.654 312.493 549.174 304.28C552.694 295.96 558.294 288.973 565.974 283.32C573.654 277.56 582.134 274.68 591.414 274.68C600.8 274.68 607.68 276.813 612.054 281.08C616.427 285.347 618.614 290.947 618.614 297.88C618.614 307.907 615.094 315.373 608.054 320.28C601.12 325.187 592.587 327.64 582.454 327.64ZM589.174 284.6C583.734 284.6 579.147 287.96 575.414 294.68C571.68 301.4 569.227 309.56 568.054 319.16H570.454C579.734 319.16 586.56 316.76 590.934 311.96C595.414 307.16 597.654 301.4 597.654 294.68C597.654 291.907 596.907 289.56 595.414 287.64C594.027 285.613 591.947 284.6 589.174 284.6Z" fill="#010100"/>
<path d="M691.8 440.56C720.747 440.56 737.213 406.5 741.2 338.38C734.787 347.567 727.073 354.587 718.06 359.44C709.047 364.12 699.773 366.46 690.24 366.46C673.6 366.46 659.3 359.7 647.34 346.18C635.38 332.66 629.4 313.853 629.4 289.76C629.4 256.653 637.98 227.88 655.14 203.44C663.46 191.48 674.207 182.033 687.38 175.1C700.553 167.993 715.547 164.44 732.36 164.44C749.347 164.44 762.26 168.86 771.1 177.7C780.113 186.367 784.62 197.113 784.62 209.94C784.62 222.767 780.633 232.907 772.66 240.36C764.687 247.813 755.24 251.54 744.32 251.54C737.213 251.54 730.453 249.807 724.04 246.34C717.627 242.873 712.687 237.847 709.22 231.26C713.9 232.473 718.32 233.08 722.48 233.08C731.84 233.08 739.207 230.393 744.58 225.02C750.127 219.647 752.9 213.58 752.9 206.82C752.9 200.06 750.647 194.513 746.14 190.18C741.633 185.673 735.22 183.42 726.9 183.42C715.98 183.42 706.013 189.053 697 200.32C688.16 211.413 681.487 224.933 676.98 240.88C672.473 256.653 670.22 273.033 670.22 290.02C670.22 307.007 673.513 320.353 680.1 330.06C686.86 339.593 695.007 344.36 704.54 344.36C714.073 344.36 722.307 339.68 729.24 330.32C736.347 320.96 739.9 308.307 739.9 292.36C739.9 288.373 739.64 284.3 739.12 280.14V279.36C742.933 279.013 746.92 278.84 751.08 278.84C761.133 278.84 768.067 280.573 771.88 284.04C775.867 287.333 777.86 293.053 777.86 301.2C777.86 354.067 768.413 395.32 749.52 424.96C742.933 435.187 734.353 443.507 723.78 449.92C713.207 456.333 701.247 459.54 687.9 459.54C669.7 459.54 656.007 454.86 646.82 445.5C637.807 436.313 633.3 425.74 633.3 413.78C633.3 401.82 636.507 392.2 642.92 384.92C649.333 377.813 657.307 374.26 666.84 374.26C672.04 374.26 677.76 375.733 684 378.68C674.813 390.293 670.22 402.513 670.22 415.34C670.22 422.793 671.953 428.86 675.42 433.54C678.887 438.22 684.347 440.56 691.8 440.56ZM862.756 243.74C851.489 243.74 841.436 251.367 832.596 266.62C823.756 281.7 819.336 296.78 819.336 311.86C819.336 343.407 827.483 359.18 843.776 359.18C855.389 359.18 864.836 351.64 872.116 336.56C879.396 321.307 883.036 304.233 883.036 285.34C883.036 257.607 876.276 243.74 862.756 243.74ZM840.656 220.34C842.563 220.34 844.296 220.947 845.856 222.16C847.589 223.2 848.456 224.327 848.456 225.54C830.949 237.673 820.463 254.573 816.996 276.24C820.636 266.533 825.056 258.127 830.256 251.02C835.629 243.913 841.176 238.54 846.896 234.9C857.816 228.14 868.476 224.76 878.876 224.76C889.276 224.76 898.116 229.873 905.396 240.1C912.676 250.327 916.316 264.02 916.316 281.18C916.316 300.42 912.416 318.1 904.616 334.22C895.949 352.42 883.643 364.987 867.696 371.92C858.683 375.907 848.803 377.9 838.056 377.9C822.976 377.9 809.803 372.093 798.536 360.48C787.443 348.693 781.896 331.88 781.896 310.04C781.896 288.027 787.269 268.7 798.016 252.06C808.763 235.247 822.976 224.673 840.656 220.34Z" fill="#010100"/>
<path d="M631.311 365.791C576.499 421.5 373.499 418.5 359.396 359C370.457 337.753 382.5 329 389 357.5C414 390 523.106 420.706 631.311 365.791Z" fill="#010100"/>
<path d="M631.311 365.791C523.106 420.706 418.5 398.359 389.387 359.749C377.061 338.832 370.457 337.753 359.396 359M631.311 365.791C576.499 421.5 373.499 418.5 359.396 359M631.311 365.791C523.106 420.706 414 390 389 357.5C382.5 329 370.457 337.753 359.396 359" stroke="black"/>
</g>
<defs>
<clipPath id="clip0_258_4">
<rect width="989" height="463" fill="white"/>
</clipPath>
</defs>
</svg>
