<svg width="815" height="375" viewBox="0 0 815 375" fill="none" xmlns="http://www.w3.org/2000/svg">
<g clip-path="url(#clip0_258_4)">
<path d="M140.694 167.356C140.694 143.463 137.366 126.14 130.71 115.388C124.225 104.636 115.265 99.2602 103.83 99.2602C92.5658 99.2602 81.8142 104.295 71.5742 114.364C61.5049 124.263 53.5688 136.807 47.7662 151.996C42.1342 167.185 39.3182 182.545 39.3182 198.076C39.3182 219.409 42.8168 236.903 49.8142 250.556C56.9822 264.209 67.7342 271.036 82.0702 271.036C94.0168 271.036 104.513 265.831 113.558 255.42C122.774 244.839 129.601 231.783 134.038 216.252C138.476 200.721 140.694 184.423 140.694 167.356ZM145.302 261.052C137.622 269.415 127.98 276.156 116.374 281.276C104.94 286.396 92.3958 288.956 78.7422 288.956C65.0889 288.956 53.0568 285.884 42.6462 279.74C32.4062 273.596 24.2142 265.404 18.0702 255.164C5.78218 234.684 -0.361816 210.791 -0.361816 183.484C-0.361816 156.177 6.37948 131.857 19.8622 110.524C33.5155 89.1909 51.6915 75.7082 74.3902 70.0762C75.7555 70.4176 77.0355 71.1002 78.2302 72.1242C79.5955 73.1482 80.3635 74.2576 80.5342 75.4522C58.5182 91.4949 45.2062 113.34 40.5982 140.988C47.7662 120.849 58.5182 105.148 72.8542 93.8842C87.3608 82.4496 102.892 76.7322 119.446 76.7322C136.001 76.7322 150.081 83.9002 161.686 98.2362C173.462 112.401 179.35 132.967 179.35 159.932C179.35 186.385 174.401 210.193 164.502 231.356C159.382 242.62 152.982 252.519 145.302 261.052ZM270.936 134.844C281.006 134.844 288.174 138.001 292.44 144.316C296.878 150.46 299.096 158.908 299.096 169.66C299.096 180.241 297.39 195.175 293.976 214.46C290.734 233.745 289.112 247.825 289.112 256.7C289.112 265.404 290.222 271.804 292.44 275.9C294.659 279.825 298.414 283.239 303.704 286.14C301.486 286.311 298.328 286.396 294.232 286.396C279.896 286.396 269.656 284.177 263.512 279.74C257.539 275.303 254.552 267.537 254.552 256.444C254.552 250.129 256.259 237.841 259.672 219.58C263.086 201.148 264.792 187.409 264.792 178.364C264.792 167.1 261.379 161.468 254.552 161.468C250.627 161.468 246.19 163.772 241.24 168.38C236.291 172.988 231.512 179.303 226.904 187.324C222.296 195.175 218.456 205.329 215.384 217.788C212.312 230.247 210.776 242.705 210.776 255.164C210.776 267.452 211.288 276.583 212.312 282.556C206.851 282.897 203.267 283.068 201.56 283.068C191.832 283.068 184.835 281.361 180.568 277.948C176.302 274.535 174.168 268.903 174.168 261.052C174.168 257.639 175.96 244.497 179.544 221.628C183.128 198.759 184.92 180.583 184.92 167.1C184.92 153.447 183.47 140.903 180.568 129.468C193.027 133.393 201.731 139.025 206.68 146.364C211.63 153.532 214.104 161.809 214.104 171.196C214.104 180.412 213.08 191.164 211.032 203.452C216.664 184.337 225.539 168.124 237.656 154.812C249.774 141.5 260.867 134.844 270.936 134.844Z" fill="#010100"/>
<path d="M353.16 203.8C352.627 207.64 351.507 214.307 349.8 223.8C346.173 243.96 344.36 258.893 344.36 268.6C344.36 278.307 345.107 284.813 346.6 288.12C338.387 285.987 332.733 282.733 329.64 278.36C326.547 273.88 325 267.587 325 259.48C325 252.333 326.12 242.573 328.36 230.2C330.6 217.72 332.04 209.293 332.68 204.92C327.133 205.88 321.213 207.747 314.92 210.52C314.707 208.173 314.6 206.413 314.6 205.24C314.6 199.587 316.307 195.747 319.72 193.72C323.133 191.587 328.04 190.467 334.44 190.36C335.187 182.36 335.56 176.6 335.56 173.08C335.56 169.56 335.507 166.627 335.4 164.28C335.4 161.933 335.4 160.173 335.4 159C342.44 159.747 347.56 161.88 350.76 165.4C353.96 168.813 355.56 173.72 355.56 180.12C355.56 182.68 355.293 186.253 354.76 190.84C363.72 190.627 370.28 188.867 374.44 185.56C374.653 187.693 374.76 189.293 374.76 190.36C374.76 195.48 373.853 199.053 372.04 201.08C370.227 203 367.187 203.96 362.92 203.96C358.653 203.96 355.4 203.907 353.16 203.8ZM386.399 229.56C389.919 217.507 395.412 207.373 402.879 199.16C410.345 190.84 417.279 186.68 423.679 186.68C430.185 186.68 434.772 188.653 437.439 192.6C440.212 196.44 441.599 201.72 441.599 208.44C441.599 215.053 440.532 224.387 438.399 236.44C436.372 248.493 435.359 257.293 435.359 262.84C435.359 268.28 436.052 272.28 437.439 274.84C438.825 277.293 441.172 279.427 444.479 281.24C443.092 281.347 441.119 281.4 438.559 281.4C429.599 281.4 423.199 280.013 419.359 277.24C415.625 274.467 413.759 269.613 413.759 262.68C413.759 258.733 414.825 251.053 416.959 239.64C419.092 228.12 420.159 219.533 420.159 213.88C420.159 206.84 418.025 203.32 413.759 203.32C411.199 203.32 408.372 204.76 405.279 207.64C402.185 210.52 399.199 214.467 396.319 219.48C393.545 224.387 391.199 230.733 389.279 238.52C387.359 246.307 386.399 254.093 386.399 261.88C386.399 269.56 386.719 275.267 387.359 279C383.945 279.213 381.705 279.32 380.639 279.32C374.559 279.32 370.185 278.307 367.519 276.28C364.852 274.147 363.519 270.787 363.519 266.2C363.519 261.613 364.425 252.867 366.239 239.96C371.999 200.28 374.879 170.147 374.879 149.56C374.879 140.28 374.239 134.04 372.959 130.84C380.959 132.973 386.399 136.227 389.279 140.6C392.265 144.867 393.759 150.947 393.759 158.84C393.759 164.173 392.692 175.373 390.559 192.44C388.532 209.507 387.145 221.88 386.399 229.56ZM481.454 239.64C476.334 239.64 471.32 239.053 466.414 237.88C466.307 238.947 466.254 240.6 466.254 242.84C466.254 251.693 467.907 258.36 471.214 262.84C474.52 267.32 478.467 269.56 483.054 269.56C487.64 269.56 492.014 268.173 496.174 265.4C500.334 262.627 503.96 258.787 507.054 253.88C510.894 254.733 512.814 256.707 512.814 259.8C503.427 274.2 491.32 281.4 476.494 281.4C467.534 281.4 459.694 277.987 452.974 271.16C446.254 264.227 442.894 254.627 442.894 242.36C442.894 233.187 444.654 224.493 448.174 216.28C451.694 207.96 457.294 200.973 464.974 195.32C472.654 189.56 481.134 186.68 490.414 186.68C499.8 186.68 506.68 188.813 511.054 193.08C515.427 197.347 517.614 202.947 517.614 209.88C517.614 219.907 514.094 227.373 507.054 232.28C500.12 237.187 491.587 239.64 481.454 239.64ZM488.174 196.6C482.734 196.6 478.147 199.96 474.414 206.68C470.68 213.4 468.227 221.56 467.054 231.16H469.454C478.734 231.16 485.56 228.76 489.934 223.96C494.414 219.16 496.654 213.4 496.654 206.68C496.654 203.907 495.907 201.56 494.414 199.64C493.027 197.613 490.947 196.6 488.174 196.6Z" fill="#010100"/>
<path d="M590.8 352.56C619.747 352.56 636.213 318.5 640.2 250.38C633.787 259.567 626.073 266.587 617.06 271.44C608.047 276.12 598.773 278.46 589.24 278.46C572.6 278.46 558.3 271.7 546.34 258.18C534.38 244.66 528.4 225.853 528.4 201.76C528.4 168.653 536.98 139.88 554.14 115.44C562.46 103.48 573.207 94.0332 586.38 87.0999C599.553 79.9932 614.547 76.4399 631.36 76.4399C648.347 76.4399 661.26 80.8599 670.1 89.6999C679.113 98.3666 683.62 109.113 683.62 121.94C683.62 134.767 679.633 144.907 671.66 152.36C663.687 159.813 654.24 163.54 643.32 163.54C636.213 163.54 629.453 161.807 623.04 158.34C616.627 154.873 611.687 149.847 608.22 143.26C612.9 144.473 617.32 145.08 621.48 145.08C630.84 145.08 638.207 142.393 643.58 137.02C649.127 131.647 651.9 125.58 651.9 118.82C651.9 112.06 649.647 106.513 645.14 102.18C640.633 97.6732 634.22 95.4199 625.9 95.4199C614.98 95.4199 605.013 101.053 596 112.32C587.16 123.413 580.487 136.933 575.98 152.88C571.473 168.653 569.22 185.033 569.22 202.02C569.22 219.007 572.513 232.353 579.1 242.06C585.86 251.593 594.007 256.36 603.54 256.36C613.073 256.36 621.307 251.68 628.24 242.32C635.347 232.96 638.9 220.307 638.9 204.36C638.9 200.373 638.64 196.3 638.12 192.14V191.36C641.933 191.013 645.92 190.84 650.08 190.84C660.133 190.84 667.067 192.573 670.88 196.04C674.867 199.333 676.86 205.053 676.86 213.2C676.86 266.067 667.413 307.32 648.52 336.96C641.933 347.187 633.353 355.507 622.78 361.92C612.207 368.333 600.247 371.54 586.9 371.54C568.7 371.54 555.007 366.86 545.82 357.5C536.807 348.313 532.3 337.74 532.3 325.78C532.3 313.82 535.507 304.2 541.92 296.92C548.333 289.813 556.307 286.26 565.84 286.26C571.04 286.26 576.76 287.733 583 290.68C573.813 302.293 569.22 314.513 569.22 327.34C569.22 334.793 570.953 340.86 574.42 345.54C577.887 350.22 583.347 352.56 590.8 352.56ZM761.756 155.74C750.489 155.74 740.436 163.367 731.596 178.62C722.756 193.7 718.336 208.78 718.336 223.86C718.336 255.407 726.483 271.18 742.776 271.18C754.389 271.18 763.836 263.64 771.116 248.56C778.396 233.307 782.036 216.233 782.036 197.34C782.036 169.607 775.276 155.74 761.756 155.74ZM739.656 132.34C741.563 132.34 743.296 132.947 744.856 134.16C746.589 135.2 747.456 136.327 747.456 137.54C729.949 149.673 719.463 166.573 715.996 188.24C719.636 178.533 724.056 170.127 729.256 163.02C734.629 155.913 740.176 150.54 745.896 146.9C756.816 140.14 767.476 136.76 777.876 136.76C788.276 136.76 797.116 141.873 804.396 152.1C811.676 162.327 815.316 176.02 815.316 193.18C815.316 212.42 811.416 230.1 803.616 246.22C794.949 264.42 782.643 276.987 766.696 283.92C757.683 287.907 747.803 289.9 737.056 289.9C721.976 289.9 708.803 284.093 697.536 272.48C686.443 260.693 680.896 243.88 680.896 222.04C680.896 200.027 686.269 180.7 697.016 164.06C707.763 147.247 721.976 136.673 739.656 132.34Z" fill="#010100"/>
<path d="M530.311 277.791C475.499 333.5 272.499 330.5 258.396 271C269.457 249.753 281.5 241 288 269.5C313 302 422.106 332.706 530.311 277.791Z" fill="#010100"/>
<path d="M530.311 277.791C422.106 332.706 317.5 310.359 288.387 271.749C276.061 250.832 269.457 249.753 258.396 271M530.311 277.791C475.499 333.5 272.499 330.5 258.396 271M530.311 277.791C422.106 332.706 313 302 288 269.5C281.5 241 269.457 249.753 258.396 271" stroke="black"/>
</g>
<defs>
<clipPath id="clip0_258_4">
<rect width="815" height="375" fill="white"/>
</clipPath>
</defs>
</svg>
