<svg width="410" height="110" viewBox="0 0 410 110" fill="none" xmlns="http://www.w3.org/2000/svg">
<path d="M351.5 110L362.125 0H399.438L409.875 110H389.062L387.5 92.25H374.25L372.875 110H351.5ZM375.812 74.6875H385.812L381 18.75H380L375.812 74.6875Z" fill="#202020"/>
<path fill-rule="evenodd" clip-rule="evenodd" d="M282.938 21.125V98C283.542 102 286.588 110 293.938 110H304.938V21.125H318V0H269.875V21.125H282.938Z" fill="#58D1F2"/>
<path d="M177.75 110V0H200.375L210.5 52.6875V0H231.75V110H210.25L199.25 55V110H177.75Z" fill="#202020"/>
<path fill-rule="evenodd" clip-rule="evenodd" d="M93 0V97C93.0417 101.333 95.525 110 105.125 110H138.438V88.5625H115.375V63.375H136.125V42.6875H115.375V21.25H137V0H93Z" fill="#58D1F2"/>
<path d="M0 110V0H33.75C39.375 0 43.625 1.29167 46.5 3.875C49.375 6.41667 51.2917 10 52.25 14.625C53.25 19.2083 53.75 24.6042 53.75 30.8125C53.75 36.8125 52.9792 41.6042 51.4375 45.1875C49.9375 48.7708 47.0833 51.25 42.875 52.625C46.3333 53.3333 48.75 55.0625 50.125 57.8125C51.5417 60.5208 52.25 64.0417 52.25 68.375V110H30.5625V66.9375C30.5625 63.7292 29.8958 61.75 28.5625 61C27.2708 60.2083 25.1667 59.8125 22.25 59.8125V110H0ZM22.375 40.75H27.6875C30.7292 40.75 32.25 37.4375 32.25 30.8125C32.25 26.5208 31.9167 23.7083 31.25 22.375C30.5833 21.0417 29.3333 20.375 27.5 20.375H22.375V40.75Z" fill="#202020"/>
</svg>
